<svg width="80" height="78" viewBox="0 0 80 78" fill="none" xmlns="http://www.w3.org/2000/svg">
<path d="M13.9651 72.8179C21.6778 72.8179 27.9302 66.5655 27.9302 58.8528C27.9302 51.1401 21.6778 44.8877 13.9651 44.8877C6.25238 44.8877 0 51.1401 0 58.8528C0 66.5655 6.25238 72.8179 13.9651 72.8179Z" fill="#FFBC57"/>
<path d="M36.2103 23.9402C42.8212 23.9402 48.1804 18.581 48.1804 11.9701C48.1804 5.35919 42.8212 0 36.2103 0C29.5994 0 24.2402 5.35919 24.2402 11.9701C24.2402 18.581 29.5994 23.9402 36.2103 23.9402Z" fill="#FFBC57"/>
<path d="M60.0497 77.8055C71.0679 77.8055 79.9999 68.8735 79.9999 57.8554C79.9999 46.8372 71.0679 37.9053 60.0497 37.9053C49.0316 37.9053 40.0996 46.8372 40.0996 57.8554C40.0996 68.8735 49.0316 77.8055 60.0497 77.8055Z" fill="#FFBC57"/>
<path d="M41.1975 72.7178C58.8266 72.7178 73.1177 58.4267 73.1177 40.7976C73.1177 23.1686 58.8266 8.87744 41.1975 8.87744C23.5685 8.87744 9.27734 23.1686 9.27734 40.7976C9.27734 58.4267 23.5685 72.7178 41.1975 72.7178Z" fill="white"/>
<path d="M41.1967 73.4165C23.1419 73.4165 8.47852 58.7532 8.47852 40.6983C8.47852 22.6434 23.1419 8.07983 41.1967 8.07983C59.2516 8.07983 73.8152 22.7432 73.8152 40.798C73.8152 58.8529 59.1518 73.4165 41.1967 73.4165ZM41.1967 9.57609C23.9399 9.57609 9.97478 23.5412 9.97478 40.798C9.97478 57.9552 23.9399 72.02 41.1967 72.02C58.3538 72.02 72.4187 58.0549 72.4187 40.798C72.3189 23.5412 58.3538 9.57609 41.1967 9.57609Z" fill="#2B2929"/>
<path d="M40.5992 28.8276L34.3149 24.6381C30.2251 21.9449 24.8386 22.5434 21.5468 26.1344L16.26 31.8202C15.2625 32.9174 14.7638 34.3139 14.9633 35.8102L18.9533 67.2316C19.1528 68.8277 20.6491 70.0247 22.2451 69.8252L43.9907 67.1319C45.5867 66.9324 46.7837 65.4361 46.5842 63.8401L42.6939 32.4187C42.5942 30.9224 41.7962 29.6257 40.5992 28.8276Z" fill="white"/>
<path d="M21.9441 70.5238C21.1461 70.5238 20.3481 70.2245 19.6498 69.7258C18.8518 69.1273 18.3531 68.2295 18.2533 67.232L14.3631 35.9103C14.1636 34.2146 14.6623 32.5188 15.8593 31.3218L21.1461 25.636C24.7371 21.7457 30.5227 21.0475 34.9117 24.04L41.196 28.2295C42.5925 29.1273 43.4902 30.6235 43.6897 32.3193L47.58 63.7407C47.6798 64.7383 47.4803 65.7358 46.782 66.5338C46.1835 67.3318 45.2858 67.8305 44.2882 67.9303L22.5426 70.6235C22.2434 70.5238 22.0439 70.5238 21.9441 70.5238ZM28.8269 23.641C26.3331 23.641 23.9391 24.6385 22.1436 26.6335L16.8568 32.3193C16.0588 33.2171 15.6598 34.5138 15.7596 35.7108L19.6498 67.0325C19.7496 67.631 20.0488 68.1298 20.5476 68.5288C21.0464 68.9278 21.6449 69.0275 22.2434 69.0275L43.989 66.3343C44.5875 66.2345 45.0863 65.9353 45.4853 65.4365C45.8843 64.9378 45.984 64.3393 45.984 63.7407L42.0937 32.3193C41.8942 31.1223 41.2957 30.025 40.2982 29.3268L33.9142 25.237C32.4179 24.2395 30.6224 23.641 28.8269 23.641Z" fill="#2B2929"/>
<path d="M46.0843 19.0521L38.9023 16.7579C34.3137 15.2616 29.2265 17.3564 27.0319 21.7454L23.5407 28.6282C22.9422 29.9249 22.9422 31.5209 23.5407 32.8177L35.9098 61.9449C36.608 63.4411 38.3038 64.1394 39.8 63.5409L60.0494 54.8626C61.5457 54.2641 62.2439 52.4686 61.6454 50.9723L49.1766 21.8451C48.5781 20.5484 47.4808 19.5509 46.0843 19.0521Z" fill="white"/>
<path d="M38.6023 64.4391C37.1061 64.4391 35.8093 63.5413 35.111 62.1448L22.8417 33.1174C22.1435 31.5213 22.2432 29.8256 22.9415 28.3293L26.4327 21.4465C28.8268 16.7583 34.2133 14.464 39.2008 16.06L46.3829 18.3543C47.9789 18.853 49.2756 20.05 49.8741 21.5463L62.2432 50.6735C63.0412 52.5687 62.1435 54.7632 60.2482 55.5612L40.0986 64.1398C39.5998 64.3393 39.1011 64.4391 38.6023 64.4391ZM35.909 17.0575C32.5175 17.0575 29.4253 18.9528 27.8292 22.1448L24.338 29.0276C23.7395 30.1248 23.7395 31.4216 24.2382 32.6186L36.6073 61.646C37.1061 62.7433 38.4028 63.3418 39.5998 62.843L59.7494 54.2645C60.8467 53.7657 61.4452 52.469 60.9465 51.272L48.4776 22.1448C47.9789 21.0475 47.0811 20.1498 45.8841 19.7508L38.7021 17.4565C37.8043 17.1573 36.8068 17.0575 35.909 17.0575Z" fill="#2B2929"/>
<path d="M35.8093 31.4214C35.1111 31.4214 34.5126 31.3216 33.8143 31.0224C32.5175 30.5236 31.52 29.5261 30.9215 28.2294C30.323 26.9326 30.323 25.5361 30.9215 24.2394C31.4203 22.9426 32.4178 21.9451 33.7146 21.3466C35.0113 20.7481 36.4078 20.7481 37.7046 21.3466C39.0013 21.8453 39.9988 22.8428 40.5973 24.1396C41.1958 25.4364 41.1958 26.8329 40.5973 28.1296C40.0986 29.4264 39.1011 30.4239 37.8043 31.0224C37.2058 31.2219 36.5076 31.4214 35.8093 31.4214ZM35.8093 22.4438C35.3106 22.4438 34.8118 22.5436 34.3131 22.7431C33.4153 23.1421 32.717 23.8403 32.318 24.7381C31.919 25.6359 31.919 26.6334 32.318 27.6309C32.717 28.5286 33.4153 29.2269 34.3131 29.6259C35.2108 30.0249 36.2083 30.0249 37.2058 29.6259C38.1036 29.2269 38.8018 28.5286 39.2008 27.6309C39.5998 26.7331 39.5998 25.7356 39.2008 24.7381C38.8018 23.8403 38.1036 23.1421 37.1061 22.7431C36.8068 22.5436 36.3081 22.4438 35.8093 22.4438Z" fill="#2B2929"/>
<path d="M37.4066 27.4311C36.2096 27.4311 35.4116 26.8326 35.0126 26.3339C34.1148 25.2366 34.0151 23.5409 34.6136 21.4461C34.7133 21.0471 35.1123 20.8476 35.5113 20.9474C35.9103 21.0471 36.1098 21.4461 36.0101 21.8451C35.5113 23.3414 35.6111 24.7379 36.1098 25.3364C36.4091 25.7354 36.9078 25.8351 37.5063 25.8351C39.9004 25.6356 43.2919 22.5434 44.8879 19.0521C46.0849 16.5583 45.8854 14.8626 45.3866 14.1643C45.0874 13.7653 44.5886 13.5658 43.9901 13.5658C42.4939 13.6656 40.4989 14.9623 38.8031 16.9573C38.5038 17.2566 38.1048 17.3563 37.7058 17.0571C37.4066 16.7578 37.3068 16.3588 37.6061 15.9598C39.6011 13.6656 41.8954 12.1693 43.8904 11.9698C45.0874 11.87 46.0849 12.269 46.6834 13.1668C47.6809 14.5633 47.4814 16.9573 46.2844 19.5508C44.3891 23.6406 40.5986 27.0321 37.6061 27.2316C37.6061 27.4311 37.5063 27.4311 37.4066 27.4311Z" fill="#2B2929"/>
<path d="M39.7003 57.5562C39.6006 57.5562 39.5008 57.5562 39.4011 57.4565C39.0021 57.257 38.8026 56.858 39.0021 56.459L47.9796 34.2146C48.1792 33.8156 48.5782 33.6161 48.9772 33.8156C49.3762 34.0151 49.5757 34.4141 49.3762 34.8131L40.3986 57.0575C40.2989 57.3567 39.9996 57.5562 39.7003 57.5562Z" fill="#FFBC57"/>
<path d="M39.8006 41.6956C40.4989 43.1918 39.7009 44.9873 38.2046 45.6856C36.7084 46.3838 34.9128 45.5858 34.2146 44.0896C33.5163 42.5933 34.3143 40.7978 35.8106 40.0996C37.4066 39.4013 39.2021 40.0996 39.8006 41.6956Z" fill="white"/>
<path d="M37.0074 46.5835C36.5086 46.5835 36.0099 46.4838 35.6109 46.2843C34.7131 45.8853 33.9151 45.187 33.5161 44.2893C32.7181 42.394 33.6158 40.1995 35.5111 39.3017C37.4064 38.5037 39.6009 39.4015 40.4986 41.2967C40.8976 42.1945 40.8976 43.2918 40.4986 44.1895C40.0996 45.0873 39.4014 45.8853 38.5036 46.2843C38.0049 46.4838 37.5061 46.5835 37.0074 46.5835ZM37.0074 40.5985C36.7081 40.5985 36.4089 40.6982 36.1096 40.798C34.9126 41.2967 34.4138 42.5935 34.9126 43.7905C35.1121 44.389 35.6109 44.788 36.1096 44.9875C36.7081 45.187 37.3066 45.187 37.8054 44.9875C38.4039 44.788 38.8029 44.2893 39.0024 43.7905C39.2019 43.192 39.2019 42.5935 39.0024 42.0947C38.7031 41.0972 37.9051 40.5985 37.0074 40.5985Z" fill="#FFBC57"/>
<path d="M54.0643 47.3815C54.7626 48.8778 53.9646 50.6733 52.4683 51.3716C50.972 52.0698 49.1765 51.2718 48.4783 49.7756C47.78 48.2793 48.578 46.4838 50.0743 45.7855C51.6703 45.187 53.4658 45.8853 54.0643 47.3815Z" fill="white"/>
<path d="M51.271 52.3687C49.7748 52.3687 48.3783 51.4709 47.7798 50.0744C46.9818 48.1792 47.8795 45.9846 49.7748 45.0869C51.67 44.2889 53.8645 45.1866 54.7623 47.0819C55.5603 48.9772 54.6626 51.1717 52.7673 52.0694C52.2685 52.2689 51.7698 52.3687 51.271 52.3687ZM51.271 46.2839C50.9718 46.2839 50.6725 46.3836 50.3733 46.4834C49.1763 46.9821 48.6775 48.2789 49.1763 49.4759C49.675 50.6729 50.9718 51.1717 52.1688 50.6729C53.3658 50.1742 53.8645 48.8774 53.3658 47.6804C53.0665 46.8824 52.1688 46.2839 51.271 46.2839Z" fill="#FFBC57"/>
<path d="M22.343 53.9648C21.944 53.9648 21.6447 53.6656 21.6447 53.2666L19.8492 38.6032C19.7494 38.2042 20.0487 37.8052 20.5474 37.8052C20.9464 37.7055 21.3454 38.0047 21.3454 38.5035L23.141 53.1668C23.141 53.5658 22.8417 53.8651 22.343 53.9648C22.4427 53.9648 22.343 53.9648 22.343 53.9648Z" fill="#2B2929"/>
<path d="M23.4407 62.4438C23.0417 62.4438 22.7425 62.1446 22.7425 61.7456L22.2437 57.7555C22.144 57.3565 22.4432 56.9575 22.942 56.9575C23.341 56.9575 23.74 57.157 23.74 57.6558L24.2387 61.6458C24.139 61.9451 23.9395 62.3441 23.4407 62.4438Z" fill="#2B2929"/>
</svg>
