<svg width="80" height="78" viewBox="0 0 80 78" fill="none" xmlns="http://www.w3.org/2000/svg">
<path d="M66.1729 39.8023C73.8094 39.8023 80 33.6116 80 25.9751C80 18.3386 73.8094 12.1479 66.1729 12.1479C58.5363 12.1479 52.3457 18.3386 52.3457 25.9751C52.3457 33.6116 58.5363 39.8023 66.1729 39.8023Z" fill="#FFBC57"/>
<path d="M34.2718 23.7037C40.8174 23.7037 46.1236 18.3974 46.1236 11.8519C46.1236 5.30625 40.8174 0 34.2718 0C27.7262 0 22.4199 5.30625 22.4199 11.8519C22.4199 18.3974 27.7262 23.7037 34.2718 23.7037Z" fill="#FFBC57"/>
<path d="M19.7531 77.5308C30.6624 77.5308 39.5062 68.6871 39.5062 57.7777C39.5062 46.8684 30.6624 38.0247 19.7531 38.0247C8.84376 38.0247 0 46.8684 0 57.7777C0 68.6871 8.84376 77.5308 19.7531 77.5308Z" fill="#FFBC57"/>
<path d="M69.0361 40.6289L63.9003 38.4561H50.0732C47.9003 38.4561 46.1226 36.6783 46.1226 34.5055V19.6907H39.209V59.1968H66.6658C67.4559 59.1968 68.246 58.9006 68.7398 58.308L69.925 57.1228C70.5176 56.5302 70.8139 55.8388 70.8139 55.0487V43.2956C70.8139 42.1104 70.1226 41.024 69.0361 40.6289Z" fill="white"/>
<path d="M63.1102 40.6289L57.9744 38.4561H50.0732C47.9003 38.4561 46.1226 36.6783 46.1226 34.5055V19.6907H39.209V59.1968H60.7398C61.53 59.1968 62.3201 58.9006 62.8139 58.308L63.9991 57.1228C64.5917 56.5302 64.888 55.8388 64.888 55.0487V43.2956C64.888 42.1104 64.1966 41.024 63.1102 40.6289Z" fill="white"/>
<path d="M60.9375 46.3574L63.9005 52.2833H70.814V46.3574H60.9375Z" fill="white"/>
<path d="M60.9375 46.3574L62.9128 50.308H66.8634C67.456 50.308 67.8511 49.913 67.8511 49.3204V46.3574H60.9375Z" fill="white"/>
<path d="M70.8138 52.9748H63.9003C63.604 52.9748 63.4064 52.7773 63.2089 52.5797L60.2459 46.6538C60.1472 46.4563 60.1472 46.16 60.2459 45.9624C60.3447 45.7649 60.641 45.5674 60.8385 45.5674H70.7151C71.1101 45.5674 71.5052 45.8637 71.5052 46.3575V52.2834C71.604 52.6785 71.3077 52.9748 70.8138 52.9748ZM64.3941 51.4933H70.1225V47.0489H62.2213L64.3941 51.4933Z" fill="#2B2929"/>
<path d="M50.0737 38.4561H63.9008L56.2959 22.9499C55.3082 20.9746 53.2342 19.6907 50.9626 19.6907H46.123V34.5055C46.123 36.6783 47.9008 38.4561 50.0737 38.4561Z" fill="white"/>
<path d="M56.2959 22.9499C55.3082 20.9746 53.2342 19.6907 50.9626 19.6907H46.123C48.2959 19.6907 50.37 20.9746 51.3576 22.9499L58.9626 38.4561H63.9008L56.2959 22.9499Z" fill="white"/>
<path d="M63.8999 39.1478H50.0728C47.5049 39.1478 45.332 37.0737 45.332 34.5058V19.691C45.332 19.2959 45.6283 18.9009 46.1222 18.9009H50.9617C53.5296 18.9009 55.8012 20.2836 56.9864 22.654L64.5913 38.1601C64.6901 38.3577 64.6901 38.654 64.5913 38.8515C64.3938 39.049 64.1962 39.1478 63.8999 39.1478ZM46.9123 20.3824V34.5058C46.9123 36.2836 48.3938 37.6663 50.1715 37.6663H62.8135L55.7024 23.2466C54.8135 21.4688 53.0357 20.3824 51.0604 20.3824H46.9123Z" fill="#2B2929"/>
<path d="M9.58078 11.7896C8.49436 11.7896 7.60547 12.6784 7.60547 13.7649V57.2216C7.60547 58.3081 8.49436 59.197 9.58078 59.197H39.2104V13.7649C39.2104 12.6784 38.3215 11.7896 37.2351 11.7896H9.58078Z" fill="white"/>
<path d="M9.58078 11.7896C8.49436 11.7896 7.60547 12.6784 7.60547 13.7649V54.2587H31.3092C32.3956 54.2587 33.2845 53.3698 33.2845 52.2834V11.7896H9.58078Z" fill="white"/>
<path d="M39.2095 59.8886H9.57989C8.0984 59.8886 6.81445 58.7035 6.81445 57.1232V13.6664C6.91322 12.1849 8.0984 10.9998 9.57989 10.9998H37.2342C38.7157 10.9998 39.9996 12.1849 39.9996 13.7652V59.1973C39.9996 59.5923 39.7033 59.8886 39.2095 59.8886ZM9.57989 12.4812C8.88853 12.4812 8.29593 13.0738 8.29593 13.7652V57.222C8.29593 57.9133 8.88853 58.5059 9.57989 58.5059H38.5182V13.7652C38.5182 13.0738 37.9256 12.4812 37.2342 12.4812H9.57989Z" fill="#2B2929"/>
<path d="M66.6668 59.8884H39.21C38.815 59.8884 38.4199 59.5921 38.4199 59.0983V19.5921C38.4199 19.1971 38.7162 18.802 39.21 18.802H46.1236C46.5187 18.802 46.9137 19.0983 46.9137 19.5921V34.4069C46.9137 36.1847 48.3952 37.5674 50.173 37.5674H64.0002C64.0989 37.5674 64.1977 37.5674 64.2965 37.6662L69.4323 39.839C70.815 40.4316 71.7039 41.7156 71.7039 43.1971V54.8514C71.7039 55.839 71.3088 56.7279 70.6175 57.518L69.4323 58.7032C68.5434 59.4934 67.6545 59.8884 66.6668 59.8884ZM40.0002 58.4069H66.6668C67.2594 58.4069 67.852 58.2094 68.2471 57.7156L69.4323 56.5304C69.8273 56.1353 70.1236 55.5427 70.1236 54.9501V43.2958C70.1236 42.4069 69.6298 41.6168 68.7409 41.2218L63.8026 39.0489H50.0742C47.5063 39.0489 45.3335 36.9748 45.3335 34.4069V20.3822H39.9014V58.4069H40.0002Z" fill="#2B2929"/>
<path d="M23.4064 65.1228C26.6792 65.1228 29.3323 62.4697 29.3323 59.1969C29.3323 55.9241 26.6792 53.271 23.4064 53.271C20.1336 53.271 17.4805 55.9241 17.4805 59.1969C17.4805 62.4697 20.1336 65.1228 23.4064 65.1228Z" fill="white"/>
<path d="M26.5675 54.0613C27.1601 54.9502 27.4564 56.0366 27.4564 57.123C27.4564 60.3823 24.7897 63.0489 21.5305 63.0489C20.4441 63.0489 19.3576 62.7526 18.4688 62.16C19.5552 63.8391 21.3329 65.0242 23.5058 65.0242C26.765 65.0242 29.4317 62.3576 29.4317 59.0983C29.3329 57.0242 28.2465 55.1477 26.5675 54.0613Z" fill="white"/>
<path d="M23.4075 65.8142C19.7531 65.8142 16.6914 62.8512 16.6914 59.0981C16.6914 55.4438 19.6544 52.3821 23.4075 52.3821C27.1605 52.3821 30.1235 55.345 30.1235 59.0981C30.1235 62.8512 27.1605 65.8142 23.4075 65.8142ZM23.4075 53.9623C20.5433 53.9623 18.1729 56.3327 18.1729 59.1969C18.1729 62.0611 20.5433 64.4315 23.4075 64.4315C26.2717 64.4315 28.642 62.0611 28.642 59.1969C28.642 56.3327 26.2717 53.9623 23.4075 53.9623Z" fill="#2B2929"/>
<path d="M23.4069 61.1723C24.4979 61.1723 25.3823 60.2879 25.3823 59.197C25.3823 58.1061 24.4979 57.2217 23.4069 57.2217C22.316 57.2217 21.4316 58.1061 21.4316 59.197C21.4316 60.2879 22.316 61.1723 23.4069 61.1723Z" fill="white"/>
<path d="M23.408 61.8636C21.9265 61.8636 20.6426 60.6784 20.6426 59.0982C20.6426 57.6167 21.8278 56.3328 23.408 56.3328C24.9883 56.3328 26.1734 57.5179 26.1734 59.0982C26.1734 60.6784 24.9883 61.8636 23.408 61.8636ZM23.408 57.913C22.7167 57.913 22.1241 58.5056 22.1241 59.197C22.1241 59.8883 22.7167 60.4809 23.408 60.4809C24.0994 60.4809 24.692 59.8883 24.692 59.197C24.692 58.5056 24.0994 57.913 23.408 57.913Z" fill="#2B2929"/>
<path d="M55.0119 65.1228C58.2847 65.1228 60.9378 62.4697 60.9378 59.1969C60.9378 55.9241 58.2847 53.271 55.0119 53.271C51.7391 53.271 49.0859 55.9241 49.0859 59.1969C49.0859 62.4697 51.7391 65.1228 55.0119 65.1228Z" fill="white"/>
<path d="M58.173 54.0613C58.7656 54.9502 59.0619 56.0366 59.0619 57.123C59.0619 60.3823 56.3952 63.0489 53.1359 63.0489C52.0495 63.0489 50.9631 62.7526 50.0742 62.16C51.1606 63.8391 52.9384 65.0242 55.1113 65.0242C58.3705 65.0242 61.0372 62.3576 61.0372 59.0983C60.9384 57.0242 59.852 55.1477 58.173 54.0613Z" fill="white"/>
<path d="M55.0129 65.8142C51.3586 65.8142 48.2969 62.8512 48.2969 59.0981C48.2969 55.4438 51.2598 52.3821 55.0129 52.3821C58.6672 52.3821 61.729 55.345 61.729 59.0981C61.729 62.8512 58.766 65.8142 55.0129 65.8142ZM55.0129 53.9623C52.1487 53.9623 49.7784 56.3327 49.7784 59.1969C49.7784 62.0611 52.1487 64.4315 55.0129 64.4315C57.8771 64.4315 60.2475 62.0611 60.2475 59.1969C60.2475 56.3327 57.8771 53.9623 55.0129 53.9623Z" fill="#2B2929"/>
<path d="M55.0124 61.1723C56.1034 61.1723 56.9877 60.2879 56.9877 59.197C56.9877 58.1061 56.1034 57.2217 55.0124 57.2217C53.9215 57.2217 53.0371 58.1061 53.0371 59.197C53.0371 60.2879 53.9215 61.1723 55.0124 61.1723Z" fill="white"/>
<path d="M55.0115 61.8636C53.53 61.8636 52.2461 60.6784 52.2461 59.0982C52.2461 57.6167 53.4313 56.3328 55.0115 56.3328C56.493 56.3328 57.777 57.5179 57.777 59.0982C57.777 60.6784 56.5918 61.8636 55.0115 61.8636ZM55.0115 57.913C54.3202 57.913 53.7276 58.5056 53.7276 59.197C53.7276 59.8883 54.3202 60.4809 55.0115 60.4809C55.7029 60.4809 56.2955 59.8883 56.2955 59.197C56.2955 58.5056 55.7029 57.913 55.0115 57.913Z" fill="#2B2929"/>
<path d="M51.0611 43.0983H47.1104C46.7154 43.0983 46.3203 42.802 46.3203 42.3082C46.3203 41.9131 46.6166 41.5181 47.1104 41.5181H51.0611C51.4561 41.5181 51.8512 41.8144 51.8512 42.3082C51.8512 42.802 51.5549 43.0983 51.0611 43.0983Z" fill="#2B2929"/>
<path d="M34.2705 37.1723H12.5421C12.147 37.1723 11.752 36.876 11.752 36.3822C11.752 35.9871 12.0482 35.592 12.5421 35.592H34.2705C34.6655 35.592 35.0606 35.8883 35.0606 36.3822C35.0606 36.876 34.7643 37.1723 34.2705 37.1723Z" fill="#FFBC57"/>
<path d="M34.2705 43.0983H12.5421C12.147 43.0983 11.752 42.802 11.752 42.3082C11.752 41.9131 12.0482 41.5181 12.5421 41.5181H34.2705C34.6655 41.5181 35.0606 41.8144 35.0606 42.3082C35.0606 42.802 34.7643 43.0983 34.2705 43.0983Z" fill="#FFBC57"/>
<path d="M34.2705 49.0241H12.5421C12.147 49.0241 11.752 48.7278 11.752 48.234C11.752 47.8389 12.0482 47.4438 12.5421 47.4438H34.2705C34.6655 47.4438 35.0606 47.7401 35.0606 48.234C35.0606 48.7278 34.7643 49.0241 34.2705 49.0241Z" fill="#FFBC57"/>
<path d="M34.2705 31.2463H12.5421C12.147 31.2463 11.752 30.95 11.752 30.4561C11.752 30.0611 12.0482 29.666 12.5421 29.666H34.2705C34.6655 29.666 35.0606 29.9623 35.0606 30.4561C35.0606 30.95 34.7643 31.2463 34.2705 31.2463Z" fill="#FFBC57"/>
<path d="M34.2705 25.3205H12.5421C12.147 25.3205 11.752 25.0242 11.752 24.5304C11.752 24.1353 12.0482 23.7402 12.5421 23.7402H34.2705C34.6655 23.7402 35.0606 24.0365 35.0606 24.5304C35.0606 25.0242 34.7643 25.3205 34.2705 25.3205Z" fill="#2B2929"/>
<path d="M34.2705 19.3945H12.5421C12.147 19.3945 11.752 19.0982 11.752 18.6043C11.752 18.2093 12.0482 17.8142 12.5421 17.8142H34.2705C34.6655 17.8142 35.0606 18.1105 35.0606 18.6043C35.0606 19.0982 34.7643 19.3945 34.2705 19.3945Z" fill="#2B2929"/>
</svg>
