<svg width="79" height="74" viewBox="0 0 79 74" fill="none" xmlns="http://www.w3.org/2000/svg">
<path d="M37.4004 73.5C45.1324 73.5 51.4004 67.232 51.4004 59.5C51.4004 51.768 45.1324 45.5 37.4004 45.5C29.6684 45.5 23.4004 51.768 23.4004 59.5C23.4004 67.232 29.6684 73.5 37.4004 73.5Z" fill="#FFBC57"/>
<path d="M12 34.5C18.6274 34.5 24 29.1274 24 22.5C24 15.8726 18.6274 10.5 12 10.5C5.37258 10.5 0 15.8726 0 22.5C0 29.1274 5.37258 34.5 12 34.5Z" fill="#FFBC57"/>
<path d="M58.5996 45C69.6453 45 78.5996 36.0457 78.5996 25C78.5996 13.9543 69.6453 5 58.5996 5C47.5539 5 38.5996 13.9543 38.5996 25C38.5996 36.0457 47.5539 45 58.5996 45Z" fill="#FFBC57"/>
<path d="M69.8008 31.2L41.8008 21.2L13.8008 31.2L41.8008 41.2L69.8008 31.2Z" fill="white"/>
<path d="M36.8008 23L13.8008 31.2L36.8008 39.5V23Z" fill="white"/>
<path d="M64.0008 33.2999L41.8008 25.3999V41.1999L64.0008 33.2999Z" fill="white"/>
<path d="M41.8 41.9999C41.7 41.9999 41.6 41.9999 41.5 41.9999L13.5 31.9999C13.2 31.8999 13 31.5999 13 31.2999C13 30.9999 13.2 30.6999 13.5 30.5999L41.5 20.5999C41.7 20.4999 41.8 20.4999 42 20.5999L70 30.5999C70.3 30.6999 70.5 30.9999 70.5 31.2999C70.5 31.5999 70.3 31.8999 70 31.9999L42 41.9999C41.9 41.9999 41.8 41.9999 41.8 41.9999ZM16 31.1999L41.8 40.3999L67.6 31.1999L41.8 21.9999L16 31.1999Z" fill="#2B2929"/>
<path d="M37.8008 14.2L9.80078 24.2L13.8008 31.2L41.8008 21.2L37.8008 14.2Z" fill="white"/>
<path d="M41.8008 21.2L37.8008 14.2L31.5008 16.5L32.8008 18.7999C33.4008 19.8999 32.9008 21.3 31.7008 21.7L12.3008 28.6L13.8008 31.2L41.8008 21.2Z" fill="white"/>
<path d="M13.8004 32C13.5004 32 13.3004 31.9 13.1004 31.6L9.10039 24.6C9.00039 24.4 9.00039 24.2 9.10039 24C9.20039 23.8 9.30039 23.6 9.60039 23.6L37.6004 13.6C37.9004 13.5 38.3004 13.6 38.5004 13.9L42.5004 20.9C42.6004 21.1 42.6004 21.3 42.6004 21.5C42.5004 21.7 42.4004 21.9 42.1004 21.9L14.0004 32C13.9004 32 13.8004 32 13.8004 32ZM10.9004 24.7L14.1004 30.4L40.7004 20.9L37.5004 15.2L10.9004 24.7Z" fill="#2B2929"/>
<path d="M45.8008 14.2L73.8008 24.2L69.8008 31.2L41.8008 21.2L45.8008 14.2Z" fill="white"/>
<path d="M69.7993 31.9999C69.6993 31.9999 69.5993 31.9999 69.4993 31.9999L41.4993 21.9999C41.2993 21.8999 41.0993 21.7999 40.9993 21.5999C40.8993 21.3999 40.8993 21.1999 41.0993 20.9999L45.0993 13.9999C45.2993 13.6999 45.6993 13.4999 45.9993 13.6999L73.9993 23.6999C74.1993 23.7999 74.3993 23.8999 74.4993 24.0999C74.5993 24.2999 74.5993 24.4999 74.3993 24.6999L70.3993 31.6999C70.2993 31.8999 69.9993 31.9999 69.7993 31.9999ZM42.8993 20.7999L69.4993 30.2999L72.6993 24.5999L46.0993 15.0999L42.8993 20.7999Z" fill="#2B2929"/>
<path d="M41.8008 66.1999L13.8008 56.2V31.2L41.8008 41.2V66.1999Z" fill="white"/>
<path d="M35.4008 59.7999L13.8008 52V31.2L36.8008 39.4V58.7999C36.8008 59.5 36.1008 60 35.4008 59.7999Z" fill="white"/>
<path d="M41.8 67C41.7 67 41.6 67 41.5 67L13.5 57C13.2 56.9 13 56.6 13 56.3V31.3C13 31.1 13.1 30.8 13.3 30.7C13.5 30.6 13.8 30.5 14 30.6L42 40.6C42.3 40.7 42.5 41 42.5 41.3V66.3C42.5 66.5 42.4 66.8 42.2 66.9C42.1 67 41.9 67 41.8 67ZM14.5 55.7L41 65.2V41.8L14.5 32.3V55.7Z" fill="#2B2929"/>
<path d="M37.8008 48.2L9.80078 38.2L13.8008 31.2L41.8008 41.2L37.8008 48.2Z" fill="white"/>
<path d="M33.1992 43.7L11.1992 35.7999L13.7992 31.2L37.3992 39.5999L35.5992 42.7C35.0992 43.6 34.0992 44 33.1992 43.7Z" fill="white"/>
<path d="M37.8 49C37.7 49 37.6 49 37.5 49L9.5 39C9.3 38.9 9.1 38.8 9 38.6C9 38.3 9 38.1 9.1 37.9L13.1 30.9C13.3 30.6 13.7 30.4 14 30.6L42 40.6C42.2 40.7 42.4 40.8 42.5 41C42.6 41.2 42.6 41.4 42.4 41.6L38.4 48.6C38.3 48.9 38 49 37.8 49ZM10.9 37.8L37.5 47.3L40.7 41.6L14.1 32.1L10.9 37.8Z" fill="#2B2929"/>
<path d="M41.8008 66.1999L69.8008 56.2V31.2L41.8008 41.2V66.1999Z" fill="white"/>
<path d="M41.8008 61.7999L64.5008 53.7C65.3008 53.4 65.8008 52.6999 65.8008 51.7999V32.7L41.8008 41.2999V61.7999Z" fill="white"/>
<path d="M41.7996 67C41.5996 67 41.4996 67 41.3996 66.9C41.1996 66.8 41.0996 66.5 41.0996 66.3V41.3C41.0996 41 41.2996 40.7 41.5996 40.6L69.5996 30.6C69.7996 30.5 70.0996 30.6 70.2996 30.7C70.4996 30.8 70.5996 31.1 70.5996 31.3V56.3C70.5996 56.6 70.3996 56.9 70.0996 57L41.9996 67C41.8996 67 41.7996 67 41.7996 67ZM42.4996 41.8V65.2L68.9996 55.7V32.3L42.4996 41.8Z" fill="#2B2929"/>
<path d="M45.8008 48.2L73.8008 38.2L69.8008 31.2L41.8008 41.2L45.8008 48.2Z" fill="white"/>
<path d="M44.3008 45.6L65.5008 38C66.7008 37.6 67.2008 36.2 66.6008 35.1L65.3008 32.8L41.8008 41.2001L44.3008 45.6Z" fill="white"/>
<path d="M45.8004 49C45.5004 49 45.3004 48.9 45.1004 48.6L41.1004 41.6C41.0004 41.4 41.0004 41.2 41.1004 41C41.2004 40.8 41.3004 40.6 41.6004 40.6L69.6004 30.6C69.9004 30.5 70.3004 30.6 70.5004 30.9L74.5004 37.9C74.6004 38.1 74.6004 38.3 74.6004 38.5C74.5004 38.7 74.4004 38.9 74.1004 38.9L46.0004 49C45.9004 49 45.8004 49 45.8004 49ZM42.9004 41.7L46.1004 47.4L72.7004 37.9L69.5004 32.2L42.9004 41.7Z" fill="#2B2929"/>
<path d="M47.8008 15.5V35.7999H35.8008V15.5H27.8008L41.8008 1.19995L55.7008 15.5H47.8008Z" fill="white"/>
<path d="M42.3002 35H36.5002V15.5C36.5002 15.1 36.2002 14.7 35.7002 14.7H29.5002L41.8002 2.3L45.0002 5.6C45.1002 5.7 45.2002 5.7 45.3002 5.6L46.0002 4.8C46.1002 4.7 46.1002 4.6 46.0002 4.5L42.3002 0.7C42.2002 0.6 42.0002 0.5 41.8002 0.5C41.6002 0.5 41.4002 0.6 41.3002 0.7L27.2002 15C27.0002 15.2 26.9002 15.5 27.0002 15.8C27.1002 16.1 27.4002 16.3 27.7002 16.3H35.0002V35.8C35.0002 36.2 35.3002 36.6 35.8002 36.6H42.3002C42.4002 36.6 42.5002 36.5 42.5002 36.4V35.3C42.5002 35.1 42.4002 35 42.3002 35Z" fill="#FFBC57"/>
<path d="M47 5.89995L46.2 6.69995C46.1 6.79995 46.1 6.89995 46.2 6.99995L53.9 14.8H47.7C47.3 14.8 46.9 15.1 46.9 15.6V35H44.1C44 35 44 35.1 44 35.2V36.2999C44 36.4 44.1 36.5 44.2 36.5H47.8C48.2 36.5 48.6 36.2 48.6 35.7V16.3H55.8C56.1 16.3 56.4 16.1 56.5 15.8C56.6 15.5 56.6 15.2 56.3 15L47.4 5.89995C47.3 5.79995 47.1 5.79995 47 5.89995Z" fill="#2B2929"/>
</svg>
