<svg width="40" height="40" viewBox="0 0 40 40" fill="none" xmlns="http://www.w3.org/2000/svg">
<path d="M18.8154 25.4833C18.7437 25.5625 18.6769 25.6459 18.6154 25.7333C18.5523 25.8262 18.5019 25.927 18.4654 26.0333C18.4173 26.1277 18.3836 26.2288 18.3654 26.3333C18.3572 26.4442 18.3572 26.5556 18.3654 26.6666C18.3597 26.8852 18.4054 27.1021 18.4987 27.2999C18.5736 27.5067 18.693 27.6946 18.8485 27.8501C19.004 28.0056 19.1919 28.1251 19.3987 28.1999C19.5982 28.2881 19.8139 28.3336 20.032 28.3336C20.2502 28.3336 20.4659 28.2881 20.6654 28.1999C20.8722 28.1251 21.06 28.0056 21.2156 27.8501C21.3711 27.6946 21.4905 27.5067 21.5654 27.2999C21.6394 27.0973 21.6733 26.8822 21.6654 26.6666C21.6666 26.4472 21.6246 26.2298 21.5417 26.0267C21.4587 25.8237 21.3365 25.639 21.182 25.4833C21.0271 25.327 20.8428 25.203 20.6397 25.1184C20.4366 25.0338 20.2187 24.9903 19.9987 24.9903C19.7787 24.9903 19.5608 25.0338 19.3577 25.1184C19.1546 25.203 18.9703 25.327 18.8154 25.4833ZM19.9987 3.33325C16.7024 3.33325 13.48 4.31073 10.7392 6.14209C7.99838 7.97345 5.86217 10.5764 4.60071 13.6219C3.33925 16.6673 3.0092 20.0184 3.65228 23.2514C4.29537 26.4844 5.88272 29.4542 8.21359 31.785C10.5445 34.1159 13.5142 35.7033 16.7472 36.3463C19.9802 36.9894 23.3313 36.6594 26.3768 35.3979C29.4222 34.1365 32.0252 32.0002 33.8565 29.2594C35.6879 26.5186 36.6654 23.2963 36.6654 19.9999C36.6654 17.8112 36.2343 15.644 35.3967 13.6219C34.5591 11.5998 33.3315 9.76245 31.7838 8.21481C30.2362 6.66716 28.3989 5.4395 26.3768 4.60193C24.3547 3.76435 22.1874 3.33325 19.9987 3.33325ZM19.9987 33.3333C17.3616 33.3333 14.7838 32.5513 12.5911 31.0862C10.3984 29.6211 8.68948 27.5387 7.68031 25.1024C6.67114 22.666 6.4071 19.9851 6.92157 17.3987C7.43604 14.8123 8.70591 12.4365 10.5706 10.5718C12.4353 8.70713 14.8111 7.43725 17.3975 6.92278C19.9839 6.40831 22.6648 6.67236 25.1012 7.68153C27.5375 8.69069 29.6199 10.3997 31.085 12.5923C32.55 14.785 33.332 17.3628 33.332 19.9999C33.332 23.5361 31.9273 26.9275 29.4268 29.428C26.9263 31.9285 23.5349 33.3333 19.9987 33.3333ZM19.9987 11.6666C19.1205 11.666 18.2576 11.8968 17.4969 12.3357C16.7362 12.7745 16.1045 13.406 15.6654 14.1666C15.5448 14.3563 15.4638 14.5684 15.4273 14.7902C15.3908 15.012 15.3996 15.2389 15.4531 15.4572C15.5066 15.6756 15.6037 15.8808 15.7385 16.0606C15.8734 16.2405 16.0432 16.3912 16.2378 16.5037C16.4324 16.6162 16.6478 16.6881 16.8709 16.7152C17.0941 16.7423 17.3204 16.724 17.5363 16.6614C17.7521 16.5988 17.9531 16.4931 18.1271 16.3508C18.3011 16.2085 18.4445 16.0324 18.5487 15.8333C18.6955 15.5789 18.907 15.3679 19.1616 15.2215C19.4162 15.0752 19.705 14.9988 19.9987 14.9999C20.4407 14.9999 20.8647 15.1755 21.1772 15.4881C21.4898 15.8006 21.6654 16.2246 21.6654 16.6666C21.6654 17.1086 21.4898 17.5325 21.1772 17.8451C20.8647 18.1577 20.4407 18.3333 19.9987 18.3333C19.5567 18.3333 19.1328 18.5088 18.8202 18.8214C18.5076 19.134 18.332 19.5579 18.332 19.9999V21.6666C18.332 22.1086 18.5076 22.5325 18.8202 22.8451C19.1328 23.1577 19.5567 23.3333 19.9987 23.3333C20.4407 23.3333 20.8647 23.1577 21.1772 22.8451C21.4898 22.5325 21.6654 22.1086 21.6654 21.6666V21.3666C22.7677 20.9666 23.6943 20.192 24.2833 19.178C24.8723 18.1641 25.0863 16.9754 24.8877 15.8197C24.6891 14.6641 24.0907 13.6149 23.197 12.8558C22.3033 12.0966 21.1713 11.6757 19.9987 11.6666Z" fill="#FFBC57"/>
</svg>
