<svg width="50" height="24" viewBox="0 0 50 24" fill="none" xmlns="http://www.w3.org/2000/svg">
<path d="M6.84 18.228C10.507 18.228 12.312 16.138 12.312 12.984V5.327H10.07V12.927C10.07 14.941 8.949 16.252 6.84 16.252C4.712 16.252 3.591 14.941 3.591 12.927V5.327H1.349V13.003C1.349 16.119 3.154 18.228 6.84 18.228ZM25.8301 18L20.8521 5.327H18.0781L13.1001 18H15.6271L16.5581 15.568H22.3721L23.3031 18H25.8301ZM21.7451 13.611H17.1851L19.4651 7.569L21.7451 13.611Z" fill="#535353"/>
<path d="M38.7101 14.83L42.9501 10.59C43.0438 10.497 43.1182 10.3864 43.1689 10.2646C43.2197 10.1427 43.2458 10.012 43.2458 9.88C43.2458 9.74799 43.2197 9.61728 43.1689 9.49542C43.1182 9.37356 43.0438 9.26296 42.9501 9.17C42.7627 8.98375 42.5092 8.87921 42.2451 8.87921C41.9809 8.87921 41.7274 8.98375 41.5401 9.17L38.0001 12.71L34.4601 9.17C34.2727 8.98375 34.0192 8.87921 33.7551 8.87921C33.4909 8.87921 33.2374 8.98375 33.0501 9.17C32.9574 9.26344 32.884 9.37426 32.8343 9.49609C32.7845 9.61793 32.7593 9.74839 32.7601 9.88C32.7593 10.0116 32.7845 10.1421 32.8343 10.2639C32.884 10.3857 32.9574 10.4966 33.0501 10.59L37.2901 14.83C37.383 14.9237 37.4936 14.9981 37.6155 15.0489C37.7373 15.0997 37.868 15.1258 38.0001 15.1258C38.1321 15.1258 38.2628 15.0997 38.3846 15.0489C38.5065 14.9981 38.6171 14.9237 38.7101 14.83Z" fill="#535353"/>
</svg>
